<?xml version="1.0" encoding="UTF-8"?>
<svg xmlns="http://www.w3.org/2000/svg" viewBox="0 0 1114 1114" width="1114" height="1114">
  <metadata>
    <rdf:RDF xmlns:rdf="http://www.w3.org/1999/02/22-rdf-syntax-ns#"
             xmlns:dc="http://purl.org/dc/elements/1.1/"
             xmlns:cc="http://creativecommons.org/ns#">
      <cc:Work rdf:about="">
        <dc:title>Axismundi Symbol</dc:title>
        <dc:creator>Jiwoon Kim</dc:creator>
        <dc:description>Canonical draft project symbol for Axismundi.</dc:description>
        <dc:rights>Copyright Jiwoon Kim. Licensed for use with the Axismundi project; see assets/LICENSES.md.</dc:rights>
      </cc:Work>
    </rdf:RDF>
  </metadata>
  <!--
    ============================================================
      Axismundi Icon — Design Guidelines

      Coordinate system
        viewBox: 0 0 1114 1114
        Mirror axis: x = 557 (every paired path satisfies L_x + R_x = 1114)
        Ring system center: (557, 455)
        visible-outer-ring and locked-inner-halo are concentric.

      Layer model (two semantic layers, rendered in order)
        1. symbolic-ring-layer
             locked-outer-ring-source   hidden — canonical annulus geometry
             visible-outer-ring         rendered, root-knockout cut applied
             locked-inner-halo          92 dots, mathematically exact distribution
             locked-central-axis        spike that masks the halo top dot
             nodes-cardinal             N (top), W, E

        2. world-tree-layer
             trunk-axis                 stem segments: head, body, root
             branches-canopy            organic filled branches
             nodes-canopy               fruits / leaves
             branches-root              organic filled roots
             nodes-root                 root endpoints / anchors

      Halo / spike rule  (DO NOT TOUCH)
        - The inner-halo top dot at (557, 161) is INTENTIONAL.
        - locked-central-axis spike crosses it 5:5 vertically (spike center y = 161).
        - Spike width equals the halo dot diameter (= 6 = halo stroke-width).
        - Together they create the "power-button notch" effect.
        - DO NOT use stroke-dashoffset to shift the top dot into a gap.
        - DO NOT change the inner-halo transform without re-verifying top-dot position.

      Pixel alignment rule
        - Locked geometric elements use integer coordinates.
        - Mirror axis: x = 557.
        - Halo dots use EVEN stroke-width (6) for stable browser rendering.
          With stroke-width=6 on integer center (557, 161), dot edges land on
          integer pixels (554, 560 / 158, 164) — no .5 subpixel boundaries.
        - Halo dot diameter (6) equals locked-central-axis spike width (6).
        - Mirrored node pairs satisfy leftX + rightX = 1114, share y and r.
        - Organic branch/root paths may retain decimals for curve fidelity.

      Inner halo distribution
        2π × 294 = 1847.26 (actual circumference).
        pathLength=1840 + dash cycle (0.1 + 19.9 = 20.0) → 1840/20 = 92 exact.
        transform="rotate(-90 557 455)" rotates the circle's natural start point
          from (851, 455) to (557, 161) so the first dot lands at the top.

      Outer-ring derivation rule
        - visible-outer-ring is a DERIVED / CROPPED shape (root-knockout cut).
        - It MUST NOT be treated as canonical geometry.
        - If layout is recalculated, regenerate visible-outer-ring from
          locked-outer-ring-source (the full annulus), not from itself.

      Node semantics (formerly grouped as "nodes-axis"; that group is dissolved)
        (557, 108)  r=20  → nodes-cardinal :: node-cardinal-north
        (557, 235)  r=37  → nodes-canopy   :: node-canopy-crown
        (557, 400)  r=24  → nodes-canopy   :: node-canopy-mid-confluence
        (557, 1003) r=26  → nodes-root     :: node-root-base
        x=557 is conceptual alignment axis only, not a node group.

      Render-order constraint
        Within each section, order is: shapes → outlines → nodes
        so node circles cover branch/trunk join points cleanly.
    ============================================================
  -->
  <defs>
    <radialGradient id="bg" cx="557" cy="557" r="557" gradientUnits="userSpaceOnUse">
      <stop offset="0" stop-color="#2E2F32"/>
      <stop offset="1" stop-color="#202024"/>
    </radialGradient>
    <clipPath id="clip">
      <rect width="1114" height="1114" rx="232.78"/>
    </clipPath>
  </defs>

  <g clip-path="url(#clip)">

    <g id="locked-background">
      <rect width="1114" height="1114" rx="232.78" fill="url(#bg)"/>
    </g>

    <!-- ============================================================
         LAYER 1 — Symbolic ring
         ring / halo / central axis / cardinal nodes
         ============================================================ -->
    <g id="symbolic-ring-layer">

      <!--
        locked-outer-ring-source: hidden archival annulus.
        Outer arc r=352, inner arc r=344, both centered (557, 455).
        Source of truth for outer-ring geometry; use this — NOT the cropped
        visible-outer-ring — when re-deriving ring positions.
      -->
      <g id="locked-outer-ring-source" display="none">
        <path fill="#EEEEEE" fill-rule="evenodd"
              d="M 557 103 A 352 352 0 0 1 557 807 A 352 352 0 0 1 557 103 Z
                 M 557 111 A 344 344 0 0 1 557 799 A 344 344 0 0 1 557 111 Z"/>
      </g>

      <!--
        visible-outer-ring: derived from locked-outer-ring-source with
        a root-knockout cut at the bottom where root branches break through.
        DO NOT use as geometric reference; it is a rendered shape.
      -->
      <g id="visible-outer-ring" fill="#EEEEEE">
        <path d="M557 103C650.356 103 739.889 140.086 805.901 206.099C871.914 272.111 909 361.644 909 455C909 548.356 871.914 637.889 805.901 703.901C774.411 735.391 737.569 760.298 697.513 777.737C692.148 777.022 686.802 776.359 681.495 775.68C725.606 758.554 766.139 732.352 800.245 698.245C864.758 633.733 901 546.234 901 455C901 363.766 864.758 276.267 800.245 211.755C735.733 147.242 648.234 111 557 111C465.766 111 378.267 147.242 313.755 211.755C249.242 276.267 213 363.766 213 455C213 546.234 249.242 633.733 313.755 698.245C347.861 732.351 388.393 758.554 432.504 775.68C427.197 776.359 421.851 777.022 416.486 777.737C376.43 760.298 339.588 735.391 308.099 703.901C242.086 637.889 205 548.356 205 455C205 361.644 242.086 272.111 308.099 206.099C374.111 140.086 463.644 103 557 103Z"/>
      </g>

      <!--
        locked-inner-halo: 92 dots, evenly distributed.
        Top dot at (557, 161) is INTENTIONAL — see Halo/spike rule above.

        Even-numbered stroke-width (6) chosen for pixel-grid stability:
        with integer center, dot edges land on integer pixels (no .5 subpixel
        boundaries from antialiasing).
      -->
      <g id="locked-inner-halo">
        <circle cx="557" cy="455" r="294"
                fill="none" stroke="#EEEEEE" stroke-width="6"
                stroke-linecap="round" stroke-linejoin="round"
                pathLength="1840"
                stroke-dasharray="0.1 19.9"
                stroke-dashoffset="0"
                transform="rotate(-90 557 455)"/>
      </g>

      <!--
        locked-central-axis: symbolic vertical tick linking
        node-cardinal-north (557, 108) and node-canopy-crown (557, 235).
        Centered horizontally at x = 557 = viewBox width / 2 (screen center).
        Crosses the inner-halo top dot at 5:5 vertically (spike y_center = 161).
        Width = 6, equal to the halo dot diameter (= halo stroke-width).
        All edges land on integer pixels: x ∈ [554, 560], y ∈ [138, 184].
        The spike fully masks the top dot, creating the power-button notch effect.
        DO NOT change width without considering this masking relationship.
        DO NOT shift x off 557; the spike anchors the symbolic vertical axis.
      -->
      <g id="locked-central-axis">
        <rect x="554" y="138" width="6" height="46" rx="3" fill="#EEEEEE"/>
      </g>

      <g id="nodes-cardinal" fill="#EEEEEE">
        <circle id="node-cardinal-north" cx="557" cy="108" r="20"/>
        <circle id="node-cardinal-west"  cx="209" cy="457" r="20"/>
        <circle id="node-cardinal-east"  cx="905" cy="457" r="20"/>
      </g>

    </g>

    <!-- ============================================================
         LAYER 2 — World tree
         trunk / branches / canopy / root, centered on x=557
         ============================================================ -->
    <g id="world-tree-layer">

      <g id="trunk-axis" fill="#EEEEEE">
        <rect id="trunk-head-stem" x="550" y="260" width="14" height="220" rx="2"/>
        <rect id="trunk-main-body" x="540" y="480" width="34" height="300" rx="2"/>
        <rect id="trunk-root-stem" x="547" y="785" width="20" height="200" rx="2"/>
      </g>

      <g id="branches-canopy" fill="#EEEEEE">
        <!-- P1 upper -->
        <path d="M456.921 325.886C453.64 325.295 450.36 324.705 447.079 324.114C446.291 328.115 445.644 331.956 445.128 335.672C437.951 370.013 452.886 412.363 484.516 430.602C513.739 449.777 541.082 469.033 544.069 501.496C544.579 505.083 544.855 508.305 545.016 512.036C551.005 511.679 556.995 511.321 562.984 510.964C562.654 506.665 562.19 502.91 561.441 498.673C556.801 459.34 519.767 435.431 492.484 419.091C462.971 402.426 450.686 370.593 455.453 336.919C455.811 333.4 456.296 329.732 456.921 325.886Z"/>
        <path d="M 657.079 325.886 C 660.36 325.295 663.64 324.705 666.921 324.114 C 667.709 328.115 668.356 331.956 668.872 335.672 C 676.049 370.013 661.114 412.363 629.484 430.602 C 600.261 449.777 572.918 469.033 569.931 501.496 C 569.421 505.083 569.145 508.305 568.984 512.036 C 562.995 511.679 557.005 511.321 551.016 510.964 C 551.346 506.665 551.81 502.91 552.559 498.673 C 557.199 459.34 594.233 435.431 621.516 419.091 C 651.029 402.426 663.314 370.593 658.547 336.919 C 658.189 333.4 657.704 329.732 657.079 325.886 Z"/>
        <!-- P2 middle -->
        <path d="M548.955 523.059C549.691 525.746 551.46 527.999 553.919 529.309C556.375 530.619 559.319 530.879 562.059 530.045C564.799 529.21 567.099 527.353 568.407 524.896C569.719 522.439 569.932 519.582 569.045 516.941C567.425 512.094 565.891 507.854 564.042 503.073C556.929 484.991 548.025 466.736 534.484 451.228C523.292 438.192 506.972 427.743 489.366 425.187C471.908 422.229 454.878 426.268 440.5 426.875C439.328 426.9 438.176 426.909 437.043 426.904C405.59 428.091 374.3 409.933 367.479 378.066C366.404 373.807 365.639 369.169 365.5 365C365.476 363.963 365.034 362.968 364.285 362.234C363.534 361.501 362.537 361.089 361.5 361.089C360.463 361.089 359.466 361.501 358.715 362.234C357.966 362.968 357.524 363.963 357.5 365C357.443 370.136 358.075 375.122 359.053 379.979C364.346 415.858 402.131 440.465 436.69 439.999C437.941 440.058 439.211 440.1 440.5 440.125C473.966 437.119 503.543 437.323 521.503 462.205C532.255 475.655 539.488 492.685 545.039 509.846C546.501 514.38 547.681 518.429 548.955 523.059Z"/>
        <path d="M 565.045 523.059 C 564.309 525.746 562.54 527.999 560.081 529.309 C 557.625 530.619 554.681 530.879 551.941 530.045 C 549.201 529.21 546.901 527.353 545.593 524.896 C 544.281 522.439 544.068 519.582 544.955 516.941 C 546.575 512.094 548.109 507.854 549.958 503.073 C 557.071 484.991 565.975 466.736 579.516 451.228 C 590.708 438.192 607.028 427.743 624.634 425.187 C 642.092 422.229 659.122 426.268 673.5 426.875 C 674.672 426.9 675.824 426.909 676.957 426.904 C 708.41 428.091 739.7 409.933 746.521 378.066 C 747.596 373.807 748.361 369.169 748.5 365 C 748.524 363.963 748.966 362.968 749.715 362.234 C 750.466 361.501 751.463 361.089 752.5 361.089 C 753.537 361.089 754.534 361.501 755.285 362.234 C 756.034 362.968 756.476 363.963 756.5 365 C 756.557 370.136 755.925 375.122 754.947 379.979 C 749.654 415.858 711.869 440.465 677.31 439.999 C 676.059 440.058 674.789 440.1 673.5 440.125 C 640.034 437.119 610.457 437.323 592.497 462.205 C 581.745 475.655 574.512 492.685 568.961 509.846 C 567.499 514.38 566.319 518.429 565.045 523.059 Z"/>
        <!-- P3 lower -->
        <path d="M331.284 499.452C329.447 498.661 327.609 497.872 325.772 497.082C324.225 500.838 322.679 504.593 321.132 508.349C322.993 509.082 324.854 509.816 326.716 510.548C332.852 512.965 339.202 514.965 345.682 516.424C364.204 520.618 386.343 520.7 403.084 507.77C419.78 494.776 425.433 474.109 427.433 455.407C427.447 455.273 427.461 455.139 427.475 455.005C428.08 449.036 418.217 447.969 417.533 453.929C415.003 479.901 412.411 508.397 429.256 533.002C447.297 557.48 477.141 561.607 498.179 572.27C519.917 581.867 533.361 601.03 538.181 624.599C539.499 630.527 540.372 636.184 541.022 642.557C541.207 644.385 542.087 646.082 543.495 647.273C544.904 648.464 546.72 649.051 548.551 648.905C550.382 648.758 552.083 647.89 553.284 646.491C554.486 645.092 555.085 643.277 554.978 641.443C554.552 634.552 553.855 628.324 552.6 621.636C548.775 595.496 530.472 568.455 505.135 557.861C480.532 546.088 453.973 543.149 439.613 525.127C425.225 507.225 424.739 480.12 427.467 455.071L417.525 453.995C417.513 454.12 417.5 454.245 417.487 454.369C415.69 471.88 410.057 489.662 396.81 499.532C383.708 509.5 365.067 509.584 348.335 505.288C342.537 503.819 336.8 501.83 331.284 499.452Z"/>
        <path d="M 782.716 499.452 C 784.553 498.661 786.391 497.872 788.228 497.082 C 789.775 500.838 791.321 504.593 792.868 508.349 C 791.007 509.082 789.146 509.816 787.284 510.548 C 781.148 512.965 774.798 514.965 768.318 516.424 C 749.796 520.618 727.657 520.7 710.916 507.77 C 694.22 494.776 688.567 474.109 686.567 455.407 C 686.553 455.273 686.539 455.139 686.525 455.005 C 685.92 449.036 695.783 447.969 696.467 453.929 C 698.997 479.901 701.589 508.397 684.744 533.002 C 666.703 557.48 636.859 561.607 615.821 572.27 C 594.083 581.867 580.639 601.03 575.819 624.599 C 574.501 630.527 573.628 636.184 572.978 642.557 C 572.793 644.385 571.913 646.082 570.505 647.273 C 569.096 648.464 567.28 649.051 565.449 648.905 C 563.618 648.758 561.917 647.89 560.716 646.491 C 559.514 645.092 558.915 643.277 559.022 641.443 C 559.448 634.552 560.145 628.324 561.4 621.636 C 565.225 595.496 583.528 568.455 608.865 557.861 C 633.468 546.088 660.027 543.149 674.387 525.127 C 688.775 507.225 689.261 480.12 686.533 455.071 L 696.475 453.995 C 696.487 454.12 696.5 454.245 696.513 454.369 C 698.31 471.88 703.943 489.662 717.19 499.532 C 730.292 509.5 748.933 509.584 765.665 505.288 C 771.463 503.819 777.2 501.83 782.716 499.452 Z"/>
      </g>

      <g id="nodes-canopy" fill="#EEEEEE">
        <!-- crown + mid-confluence: formerly nodes-axis, on x=557 vertical -->
        <circle id="node-canopy-crown"          cx="557" cy="235" r="37"/>
        <circle id="node-canopy-mid-confluence" cx="557" cy="400" r="24"/>
        <!-- canopy node pairs (L/R mirror about x=557) -->
        <circle cx="443" cy="313" r="24"/>
        <circle cx="671" cy="313" r="24"/>
        <circle cx="355" cy="379" r="26"/>
        <circle cx="759" cy="379" r="26"/>
        <circle cx="336" cy="514" r="26"/>
        <circle cx="778" cy="514" r="26"/>
      </g>

      <g id="branches-root" fill="#EEEEEE">
        <!-- root-crown-body -->
        <path d="M299.518 872.767C299.475 873.146 299.588 873.534 299.824 873.844C300.06 874.154 300.399 874.361 300.776 874.42C301.153 874.48 301.539 874.387 301.859 874.165C302.179 873.942 302.406 873.608 302.482 873.233C303.809 866.637 305.264 861.272 307.401 855.08C315.203 831.496 332.599 812.567 355.078 804.191C394.751 788.944 439.88 795.234 485.209 784.738C533.824 778.079 568.055 724.772 569.253 678.894C569.907 672.558 570.322 665.983 570.5 659C570.602 655.42 569.27 651.986 566.736 649.454C564.206 646.922 560.683 645.5 557 645.5C553.317 645.5 549.794 646.922 547.264 649.454C544.73 651.986 543.398 655.42 543.5 659C543.677 665.36 543.637 671.289 543.388 676.944C542.87 719.009 522.495 756.784 480.407 766.707C440.258 778.778 393.446 774.904 350.658 794.118C326.041 804.94 308.507 828.821 302.929 853.737C301.269 860.339 300.339 865.963 299.518 872.767Z"/>
        <path d="M 814.482 872.767 C 814.525 873.146 814.412 873.534 814.176 873.844 C 813.94 874.154 813.601 874.361 813.224 874.42 C 812.847 874.48 812.461 874.387 812.141 874.165 C 811.821 873.942 811.594 873.608 811.518 873.233 C 810.191 866.637 808.736 861.272 806.599 855.08 C 798.797 831.496 781.401 812.567 758.922 804.191 C 719.249 788.944 674.12 795.234 628.791 784.738 C 580.176 778.079 545.945 724.772 544.747 678.894 C 544.093 672.558 543.678 665.983 543.5 659 C 543.398 655.42 544.73 651.986 547.264 649.454 C 549.794 646.922 553.317 645.5 557 645.5 C 560.683 645.5 564.206 646.922 566.736 649.454 C 569.27 651.986 570.602 655.42 570.5 659 C 570.323 665.36 570.363 671.289 570.612 676.944 C 571.13 719.009 591.505 756.784 633.593 766.707 C 673.742 778.778 720.554 774.904 763.342 794.118 C 787.959 804.94 805.493 828.821 811.071 853.737 C 812.731 860.339 813.661 865.963 814.482 872.767 Z"/>
        <!-- root-inner -->
        <path d="M244.917 845.065C245.972 846.355 247.028 847.645 248.083 848.935C249.37 847.939 250.605 846.984 251.884 845.992C269.349 832.106 287.665 819.331 309.279 817.422C315.374 816.683 321.543 816.591 327.764 816.794C329.339 816.845 330.84 816.915 332.437 817C332.479 813.333 332.521 809.667 332.563 806C330.878 806.048 329.291 806.119 327.624 806.212C321.035 806.589 314.473 807.324 307.911 808.526C284.357 812.039 264.96 827.296 248.547 841.92C247.322 842.98 246.145 844.003 244.917 845.065Z"/>
        <path d="M 869.083 845.065 C 868.028 846.355 866.972 847.645 865.917 848.935 C 864.63 847.939 863.395 846.984 862.116 845.992 C 844.651 832.106 826.335 819.331 804.721 817.422 C 798.626 816.683 792.457 816.591 786.236 816.794 C 784.661 816.845 783.16 816.915 781.563 817 C 781.521 813.333 781.479 809.667 781.437 806 C 783.122 806.048 784.709 806.119 786.376 806.212 C 792.965 806.589 799.527 807.324 806.089 808.526 C 829.643 812.039 849.04 827.296 865.453 841.92 C 866.678 842.98 867.855 844.003 869.083 845.065 Z"/>
        <!-- root-mid-inner -->
        <path d="M321.543 918.143C322.514 918.381 323.486 918.619 324.457 918.857C326.092 913.073 327.782 908.235 330.068 902.816C338.648 882.051 354.269 865.023 374.05 855.462C408.901 838.265 449.622 839.447 489.705 827.269C532.16 818.059 563.063 771.724 564.759 729.617C565.407 723.692 565.808 717.851 566 711.5C557.333 711.5 548.667 711.5 540 711.5C540.186 717.229 540.183 722.448 539.966 727.684C539.548 765.612 521.248 799.057 484.146 811.24C448.662 824.946 406.164 826.631 369.743 847.56C348.955 859.341 333.383 879.3 326.141 901.305C324.158 907.063 322.818 912.148 321.543 918.143Z"/>
        <path d="M 792.457 918.143 C 791.486 918.381 790.514 918.619 789.543 918.857 C 787.908 913.073 786.218 908.235 783.932 902.816 C 775.352 882.051 759.731 865.023 739.95 855.462 C 705.099 838.265 664.378 839.447 624.295 827.269 C 581.84 818.059 550.937 771.724 549.241 729.617 C 548.593 723.692 548.192 717.851 548 711.5 C 556.667 711.5 565.333 711.5 574 711.5 C 573.814 717.229 573.817 722.448 574.034 727.684 C 574.452 765.612 592.752 799.057 629.854 811.24 C 665.338 824.946 707.836 826.631 744.257 847.56 C 765.045 859.341 780.617 879.3 787.859 901.305 C 789.842 907.063 791.182 912.148 792.457 918.143 Z"/>
        <!-- root-mid-outer -->
        <path d="M415.062 912.5C417.688 912.5 420.312 912.5 422.938 912.5C423.178 907.052 423.41 901.956 424.238 896.993C429.842 860.009 465.195 838.476 499.108 824.919C537.738 809.803 558.742 770.039 566.563 733.576C571.436 711.603 571.66 688.95 567.764 667.121C566.774 661.66 565.511 656.275 563.901 650.964C561.3 651.321 558.7 651.679 556.099 652.036C555.939 657.315 555.605 662.551 555.182 667.784C553.421 688.699 550.458 709.189 546.07 728.989C538.781 762.305 521.971 794.592 491.892 808.081C456.854 823.886 416.864 852.33 414.726 895.97C414.371 901.588 414.724 907.33 415.062 912.5Z"/>
        <path d="M 698.938 912.5 C 696.312 912.5 693.688 912.5 691.062 912.5 C 690.822 907.052 690.59 901.956 689.762 896.993 C 684.158 860.009 648.805 838.476 614.892 824.919 C 576.262 809.803 555.258 770.039 547.437 733.576 C 542.564 711.603 542.34 688.95 546.236 667.121 C 547.226 661.66 548.489 656.275 550.099 650.964 C 552.7 651.321 555.3 651.679 557.901 652.036 C 558.061 657.315 558.395 662.551 558.818 667.784 C 560.579 688.699 563.542 709.189 567.93 728.989 C 575.219 762.305 592.029 794.592 622.108 808.081 C 657.146 823.886 697.136 852.33 699.274 895.97 C 699.629 901.588 699.276 907.33 698.938 912.5 Z"/>
        <!-- root-outer-tip -->
        <path d="M471.005 922.897C470.989 923.152 471.077 923.407 471.245 923.606C471.413 923.805 471.647 923.931 471.901 923.957C472.155 923.983 472.41 923.908 472.615 923.748C472.82 923.587 472.959 923.356 472.995 923.103C473.398 920.261 473.864 917.437 474.508 914.67C478.673 894.446 495.077 880.252 512.791 871.122C531.303 861.887 545.873 843.943 552.255 823.979C556.217 812.432 559.17 800.644 561.432 788.945C561.995 786.013 562.509 783.102 562.977 780.183C563.405 777.554 562.745 774.96 560.998 772.96C559.259 770.961 556.577 769.722 553.683 769.523C550.79 769.325 547.963 770.188 545.968 771.931C543.965 773.673 542.957 776.154 543.023 778.817C543.095 781.678 543.175 784.511 543.233 787.348C543.459 798.648 543.359 809.923 540.752 820.562C536.575 838.819 525.636 854.944 509.209 864.878C491.384 875.7 474.558 892.688 471.896 914.169C471.445 917.085 471.19 920.009 471.005 922.897Z"/>
        <path d="M 642.995 922.897 C 643.011 923.152 642.923 923.407 642.755 923.606 C 642.587 923.805 642.353 923.931 642.099 923.957 C 641.845 923.983 641.59 923.908 641.385 923.748 C 641.18 923.587 641.041 923.356 641.005 923.103 C 640.602 920.261 640.136 917.437 639.492 914.67 C 635.327 894.446 618.923 880.252 601.209 871.122 C 582.697 861.887 568.127 843.943 561.745 823.979 C 557.783 812.432 554.83 800.644 552.568 788.945 C 552.005 786.013 551.491 783.102 551.023 780.183 C 550.595 777.554 551.255 774.96 553.002 772.96 C 554.741 770.961 557.423 769.722 560.317 769.523 C 563.21 769.325 566.037 770.188 568.032 771.931 C 570.035 773.673 571.043 776.154 570.977 778.817 C 570.905 781.678 570.825 784.511 570.767 787.348 C 570.541 798.648 570.641 809.923 573.248 820.562 C 577.425 838.819 588.364 854.944 604.791 864.878 C 622.616 875.7 639.442 892.688 642.104 914.169 C 642.555 917.085 642.81 920.009 642.995 922.897 Z"/>
      </g>

      <g id="nodes-root" fill="#EEEEEE">
        <!-- base: formerly nodes-axis, on x=557 vertical -->
        <circle id="node-root-base" cx="557" cy="1003" r="26"/>
        <!-- root node pairs (L/R mirror about x=557) -->
        <circle cx="245" cy="848" r="13"/>
        <circle cx="869" cy="848" r="13"/>
        <circle cx="321" cy="919" r="13"/>
        <circle cx="793" cy="919" r="13"/>
        <circle cx="418" cy="922" r="17"/>
        <circle cx="696" cy="922" r="17"/>
        <circle cx="475" cy="949" r="6"/>
        <circle cx="639" cy="949" r="6"/>
      </g>

    </g>

  </g>
</svg>
